<svg xmlns="http://www.w3.org/2000/svg" version="1.1" xmlns:xlink="http://www.w3.org/1999/xlink" xmlns:svgjs="http://svgjs.dev/svgjs" width="1000" height="1000" viewBox="0 0 1000 1000"><rect width="1000" height="1000" fill="#fff200"></rect><g transform="matrix(0.44785668586052463,0,0,0.44785668586052463,275.86750775239693,150.28340080971657)"><svg viewBox="0 0 158 247" data-background-color="#fff200" preserveAspectRatio="xMidYMid meet" height="1563" width="1000" xmlns="http://www.w3.org/2000/svg" xmlns:xlink="http://www.w3.org/1999/xlink"><g id="tight-bounds" transform="matrix(1,0,0,1,0.07202212930653218,-0.09999999999999432)"><svg viewBox="0 0 157.85595574138694 247.2" height="247.2" width="157.85595574138694"><g><svg viewBox="0 0 345.0320520156047 540.314889341204" height="247.2" width="157.85595574138694"><g><rect width="345.0320520156047" height="22.292751110399998" x="0" y="212.46415103080406" fill="#000000" opacity="1" stroke-width="0" stroke="transparent" fill-opacity="1" class="rect-qz-0" data-fill-palette-color="primary" rx="1%" id="qz-0" data-palette-color="#000000"></rect></g><g transform="matrix(1,0,0,1,0.8582886866059596,293.11488934120405)"><svg viewBox="0 0 343.31547464239276 247.19999999999996" height="247.19999999999996" width="343.31547464239276"><g id="textblocktransform"><svg viewBox="0 0 343.31547464239276 247.19999999999996" height="247.19999999999996" width="343.31547464239276" id="textblock"><g><svg viewBox="0 0 343.31547464239276 247.19999999999996" height="247.19999999999996" width="343.31547464239276"><g transform="matrix(1,0,0,1,0,0)"><svg width="343.31547464239276" viewBox="1.5 -38.15 53.4 38.45" height="247.19999999999996" data-palette-color="#000000"><g class="wordmark-text-0" data-fill-palette-color="primary" id="text-0"><path d="M16.5 0.3L16.5 0.3Q8.75 0.3 5.13-3.65 1.5-7.6 1.5-14.08 1.5-20.55 3.73-25.88 5.95-31.2 10.35-34.63 14.75-38.05 19.88-38.05 25-38.05 27.93-35.58 30.85-33.1 30.85-28.93 30.85-24.75 28.28-22 25.7-19.25 22.25-19.25 18.8-19.25 16.9-20.78 15-22.3 15-24.03 15-25.75 16.38-26.73 17.75-27.7 20.4-27.7L20.4-27.7Q19.75-27.05 19.75-25.98 19.75-24.9 20.4-24.1 21.05-23.3 22.4-23.3 23.75-23.3 25.1-24.73 26.45-26.15 26.45-28.5 26.45-30.85 25.03-32.25 23.6-33.65 21-33.65L21-33.65Q17.6-33.65 14.83-30.9 12.05-28.15 10.6-23.9 9.15-19.65 9.15-14.95L9.15-14.95Q9.15-10.9 10.9-7.8L10.9-7.8Q11.8-6.2 13.58-5.25 15.35-4.3 17.75-4.3L17.75-4.3Q21.85-4.3 25.65-6.93 29.45-9.55 32.05-13.7L32.05-13.7 33.75-10.65Q30.8-5.85 26.35-2.78 21.9 0.3 16.5 0.3ZM53.4-25.2L49.65-25.2Q51.15-27.45 51.15-29.4 51.15-31.35 50.05-32.5 48.95-33.65 47.15-33.65 45.35-33.65 44.25-32.77 43.15-31.9 43.15-30.03 43.15-28.15 45.75-23.3 48.35-18.45 49.05-17.05L49.05-17.05Q50.95-13.25 50.95-9.7L50.95-9.7Q50.95-5.25 47.72-2.48 44.5 0.3 40.12 0.3 35.75 0.3 33.25-2.43 30.75-5.15 30.75-8.8L30.75-8.8Q30.75-15.55 39.1-19.95L39.1-19.95Q35.7-26.65 35.7-29.3L35.7-29.3Q35.7-33 38.67-35.58 41.65-38.15 45.97-38.15 50.3-38.15 52.6-35.95 54.9-33.75 54.9-30.35L54.9-30.35Q54.9-28.1 53.4-25.2L53.4-25.2ZM36.55-5.7Q37.9-4.25 39.82-4.25 41.75-4.25 42.82-5.38 43.9-6.5 43.9-8.7L43.9-8.7Q43.9-10.7 42.35-13.6L42.35-13.6Q42.15-14 41.6-15.08 41.05-16.15 40.8-16.6L40.8-16.6Q35.2-13.7 35.2-9.3L35.2-9.3Q35.2-7.05 36.55-5.7L36.55-5.7Z" fill="#000000" data-fill-palette-color="primary"></path></g></svg></g></svg></g></svg></g></svg></g><g transform="matrix(1,0,0,1,66.43154434330296,0)"><svg viewBox="0 0 212.16896332899876 154.10616383080406" height="154.10616383080406" width="212.16896332899876"><g><svg xmlns="http://www.w3.org/2000/svg" xmlns:xlink="http://www.w3.org/1999/xlink" version="1.1" x="0" y="0" viewBox="2 15 96.37400000000001 70" enable-background="new 0 0 100 100" xml:space="preserve" height="154.10616383080406" width="212.16896332899876" class="icon-icon-0" data-fill-palette-color="accent" id="icon-0"><g fill="#000000" data-fill-palette-color="accent"><path fill="#000000" d="M76.302 24.291H22.901c-0.716 0-1.296 0.58-1.296 1.296v36.081c0 0.716 0.581 1.296 1.296 1.296h53.401c0.717 0 1.296-0.58 1.296-1.296V25.586C77.598 24.871 77.019 24.291 76.302 24.291zM75.005 26.883v1.296H24.198v-1.296H75.005zM24.198 60.37V30.772h50.807V60.37H24.198z" data-fill-palette-color="accent"></path><path fill="#000000" d="M97.077 75.493h-1.159l-2.221-1.591c0.084-0.172 0.137-0.364 0.137-0.569V16.296c0-0.716-0.581-1.296-1.296-1.296H8.12c-0.716 0-1.296 0.58-1.296 1.296v57.037c0 0.178 0.036 0.348 0.101 0.502l-2.316 1.658H3.296C2.58 75.493 2 76.075 2 76.79v6.914C2 84.419 2.58 85 3.296 85h93.781c0.717 0 1.297-0.581 1.297-1.296V76.79C98.374 76.075 97.794 75.493 97.077 75.493zM91.468 75.493H56.379c-0.717 0-1.297 0.582-1.297 1.297v0.973h-9.506V76.79c0-0.715-0.58-1.297-1.296-1.297H9.059l1.207-0.863h79.997L91.468 75.493zM9.416 17.592h81.825v54.445H9.416V17.592zM95.781 82.407H4.592v-4.321h38.391v0.973c0 0.716 0.58 1.297 1.296 1.297h12.1c0.715 0 1.296-0.581 1.296-1.297v-0.973h38.106V82.407z" data-fill-palette-color="accent"></path></g></svg></g></svg></g><g></g></svg></g><defs></defs></svg><rect width="157.85595574138694" height="247.2" fill="none" stroke="none" visibility="hidden"></rect></g></svg></g></svg>